<svg viewBox="10 80 220 150" fill="none" xmlns="http://www.w3.org/2000/svg">
  <!-- base stone — done -->
  <path
    d="M28 214 C22 188 46 168 82 170 C120 172 170 168 200 190 C214 200 210 218 190 222 C150 230 60 230 34 222 C30 220 29 218 28 214Z"
    fill="#556149"
    stroke="#7c9070"
    stroke-width="3"
  />

  <!-- second stone — done -->
  <path
    d="M48 170 C44 150 64 136 96 138 C130 140 166 136 182 154 C192 166 186 178 170 180 C136 186 70 186 54 178 C50 176 49 174 48 170Z"
    fill="#7c9070"
    stroke="#556149"
    stroke-width="3"
  />

  <!-- third stone — in progress -->
  <path
    d="M64 134 C61 116 80 106 104 108 C130 110 154 106 164 122 C170 132 164 142 150 144 C124 148 78 148 68 142 C65 140 64 138 64 134Z"
    fill="#c9a876"
    stroke="#a9885f"
    stroke-width="3"
  />

  <!-- top stone — todo, hollow -->
  <path
    d="M86 106 C84 92 98 84 114 86 C130 88 144 86 148 98 C151 106 146 114 136 116 C118 119 96 118 90 112 C88 110 87 108 86 106Z"
    fill="#1b1d1b"
    stroke="#a9ab9f"
    stroke-width="4"
  />
</svg>
